<svg width="20" height="20" viewBox="0 0 20 20" fill="none" xmlns="http://www.w3.org/2000/svg">
<path d="M17.07 2.92992C15.184 1.10834 12.6579 0.100397 10.036 0.123181C7.414 0.145965 4.90588 1.19765 3.0518 3.05174C1.19772 4.90582 0.146026 7.41394 0.123242 10.0359C0.100458 12.6579 1.1084 15.1839 2.92998 17.0699C4.816 18.8915 7.34203 19.8994 9.96399 19.8767C12.586 19.8539 15.0941 18.8022 16.9482 16.9481C18.8022 15.094 19.8539 12.5859 19.8767 9.96393C19.8995 7.34197 18.8916 4.81594 17.07 2.92992ZM14.26 12.8399C14.3537 12.9329 14.4281 13.0435 14.4789 13.1653C14.5296 13.2872 14.5558 13.4179 14.5558 13.5499C14.5558 13.6819 14.5296 13.8126 14.4789 13.9345C14.4281 14.0564 14.3537 14.167 14.26 14.2599C14.1665 14.3526 14.0557 14.4259 13.9339 14.4757C13.8121 14.5255 13.6816 14.5507 13.55 14.5499C13.4184 14.5507 13.2879 14.5255 13.1661 14.4757C13.0442 14.4259 12.9334 14.3526 12.84 14.2599L9.99998 11.4099L7.15998 14.2599C7.06654 14.3526 6.95573 14.4259 6.83389 14.4757C6.71205 14.5255 6.58159 14.5507 6.44998 14.5499C6.31838 14.5507 6.18791 14.5255 6.06608 14.4757C5.94424 14.4259 5.83342 14.3526 5.73998 14.2599C5.64625 14.167 5.57186 14.0564 5.52109 13.9345C5.47032 13.8126 5.44418 13.6819 5.44418 13.5499C5.44418 13.4179 5.47032 13.2872 5.52109 13.1653C5.57186 13.0435 5.64625 12.9329 5.73998 12.8399L8.58998 9.99992L5.73998 7.15992C5.64674 7.06668 5.57278 6.95599 5.52232 6.83417C5.47186 6.71235 5.44589 6.58178 5.44589 6.44992C5.44589 6.31806 5.47186 6.18749 5.52232 6.06567C5.57278 5.94385 5.64674 5.83316 5.73998 5.73992C5.83322 5.64668 5.94391 5.57272 6.06573 5.52226C6.18756 5.4718 6.31812 5.44583 6.44998 5.44583C6.58184 5.44583 6.71241 5.4718 6.83423 5.52226C6.95605 5.57272 7.06674 5.64668 7.15998 5.73992L9.99998 8.58992L12.84 5.73992C12.9332 5.64668 13.0439 5.57272 13.1657 5.52226C13.2876 5.4718 13.4181 5.44583 13.55 5.44583C13.6818 5.44583 13.8124 5.4718 13.9342 5.52226C14.0561 5.57272 14.1667 5.64668 14.26 5.73992C14.3532 5.83316 14.4272 5.94385 14.4776 6.06567C14.5281 6.18749 14.5541 6.31806 14.5541 6.44992C14.5541 6.58178 14.5281 6.71235 14.4776 6.83417C14.4272 6.95599 14.3532 7.06668 14.26 7.15992L11.41 9.99992L14.26 12.8399Z" fill="#C4C4C4"/>
</svg>
