<svg width="20" height="20" viewBox="0 0 20 20" fill="none" xmlns="http://www.w3.org/2000/svg">
<path d="M10 0C8.02219 0 6.08879 0.58649 4.4443 1.6853C2.79981 2.78412 1.51809 4.3459 0.761209 6.17317C0.00433284 8.00043 -0.193701 10.0111 0.192152 11.9509C0.578004 13.8907 1.53041 15.6725 2.92894 17.0711C4.32746 18.4696 6.10929 19.422 8.0491 19.8079C9.98891 20.1937 11.9996 19.9957 13.8268 19.2388C15.6541 18.4819 17.2159 17.2002 18.3147 15.5557C19.4135 13.9112 20 11.9778 20 10C20 8.68678 19.7413 7.38642 19.2388 6.17317C18.7363 4.95991 17.9997 3.85752 17.0711 2.92893C16.1425 2.00035 15.0401 1.26375 13.8268 0.761205C12.6136 0.258658 11.3132 0 10 0ZM14.71 7.71L8.71 13.71C8.61704 13.8037 8.50644 13.8781 8.38458 13.9289C8.26272 13.9797 8.13202 14.0058 8 14.0058C7.86799 14.0058 7.73729 13.9797 7.61543 13.9289C7.49357 13.8781 7.38297 13.8037 7.29 13.71L5.29 11.71C5.19677 11.6168 5.12281 11.5061 5.07234 11.3842C5.02188 11.2624 4.99591 11.1319 4.99591 11C4.99591 10.8681 5.02188 10.7376 5.07234 10.6158C5.12281 10.4939 5.19677 10.3832 5.29 10.29C5.38324 10.1968 5.49393 10.1228 5.61576 10.0723C5.73758 10.0219 5.86814 9.99591 6 9.99591C6.13186 9.99591 6.26243 10.0219 6.38425 10.0723C6.50608 10.1228 6.61677 10.1968 6.71 10.29L8 11.59L13.29 6.29C13.4783 6.1017 13.7337 5.99591 14 5.99591C14.2663 5.99591 14.5217 6.1017 14.71 6.29C14.8983 6.4783 15.0041 6.7337 15.0041 7C15.0041 7.2663 14.8983 7.5217 14.71 7.71Z" fill="#19E992"/>
</svg>
